<svg xmlns="http://www.w3.org/2000/svg" style="display: none">
  
  <symbol id="lupa" viewBox="0 0 50 50">
    <path d="M 21 3 C 11.654545 3 4 10.654545 4 20 C 4 29.345455 11.654545 37 21 37 C 24.701287 37 28.127393 35.786719 30.927734 33.755859 L 44.085938 46.914062 L 46.914062 44.085938 L 33.875 31.046875 C 36.43682 28.068316 38 24.210207 38 20 C 38 10.654545 30.345455 3 21 3 z M 21 5 C 29.254545 5 36 11.745455 36 20 C 36 28.254545 29.254545 35 21 35 C 12.745455 35 6 28.254545 6 20 C 6 11.745455 12.745455 5 21 5 z"/>
  </symbol>

  <symbol id="word" viewBox="0 0 32 32">
    <title>file_type_word2</title>
    <path d="M18.536,2.323V4.868c3.4.019,7.12-.035,10.521.019a.783.783,0,0,1,.912.861c.054,6.266-.013,12.89.032,19.157-.02.4.009,1.118-.053,1.517-.079.509-.306.607-.817.676-.286.039-.764.034-1.045.047-2.792-.014-5.582-.011-8.374-.01l-1.175,0v2.547L2,27.133Q2,16,2,4.873L18.536,2.322" style="fill:#283c82"/>
    <path d="M18.536,5.822h10.5V26.18h-10.5V23.635h8.27V22.363h-8.27v-1.59h8.27V19.5h-8.27v-1.59h8.27V16.637h-8.27v-1.59h8.27V13.774h-8.27v-1.59h8.27V10.911h-8.27V9.321h8.27V8.048h-8.27V5.822" style="fill:#fff"/>
    <path d="M8.573,11.443c.6-.035,1.209-.06,1.813-.092.423,2.147.856,4.291,1.314,6.429.359-2.208.757-4.409,1.142-6.613.636-.022,1.272-.057,1.905-.1-.719,3.082-1.349,6.19-2.134,9.254-.531.277-1.326-.013-1.956.032-.423-2.106-.916-4.2-1.295-6.314C8.99,16.1,8.506,18.133,8.08,20.175q-.916-.048-1.839-.111c-.528-2.8-1.148-5.579-1.641-8.385.544-.025,1.091-.048,1.635-.067.328,2.026.7,4.043.986,6.072.448-2.08.907-4.161,1.352-6.241" style="fill:#fff"/>
  </symbol>

    <symbol id="word_alt" viewBox="0 0 32 32" xmlns="http://www.w3.org/2000/svg">
    <defs>
      <linearGradient id="a" x1="4.494" y1="-1712.086" x2="13.832" y2="-1695.914" gradientTransform="translate(0 1720)" gradientUnits="userSpaceOnUse">
        <stop offset="0" stop-color="#2368c4"/>
        <stop offset="0.5" stop-color="#1a5dbe"/>
        <stop offset="1" stop-color="#1146ac"/>
      </linearGradient>
    </defs>
    <title>file_type_word</title>
    <path d="M28.806,3H9.705A1.192,1.192,0,0,0,8.512,4.191h0V9.5l11.069,3.25L30,9.5V4.191A1.192,1.192,0,0,0,28.806,3Z" style="fill:#41a5ee"/>
    <path d="M30,9.5H8.512V16l11.069,1.95L30,16Z" style="fill:#2b7cd3"/>
    <path d="M8.512,16v6.5L18.93,23.8,30,22.5V16Z" style="fill:#185abd"/>
    <path d="M9.705,29h19.1A1.192,1.192,0,0,0,30,27.809h0V22.5H8.512v5.309A1.192,1.192,0,0,0,9.705,29Z" style="fill:#103f91"/>
    <path d="M16.434,8.2H8.512V24.45h7.922a1.2,1.2,0,0,0,1.194-1.191V9.391A1.2,1.2,0,0,0,16.434,8.2Z" style="opacity:0.1;isolation:isolate"/>
    <path d="M15.783,8.85H8.512V25.1h7.271a1.2,1.2,0,0,0,1.194-1.191V10.041A1.2,1.2,0,0,0,15.783,8.85Z" style="opacity:0.2;isolation:isolate"/>
    <path d="M15.783,8.85H8.512V23.8h7.271a1.2,1.2,0,0,0,1.194-1.191V10.041A1.2,1.2,0,0,0,15.783,8.85Z" style="opacity:0.2;isolation:isolate"/>
    <path d="M15.132,8.85H8.512V23.8h6.62a1.2,1.2,0,0,0,1.194-1.191V10.041A1.2,1.2,0,0,0,15.132,8.85Z" style="opacity:0.2;isolation:isolate"/>
    <path d="M3.194,8.85H15.132a1.193,1.193,0,0,1,1.194,1.191V21.959a1.193,1.193,0,0,1-1.194,1.191H3.194A1.192,1.192,0,0,1,2,21.959V10.041A1.192,1.192,0,0,1,3.194,8.85Z" style="fill:url(#a)"/>
    <path d="M6.9,17.988c.023.184.039.344.046.481h.028c.01-.13.032-.287.065-.47s.062-.338.089-.465l1.255-5.407h1.624l1.3,5.326a7.761,7.761,0,0,1,.162,1h.022a7.6,7.6,0,0,1,.135-.975l1.039-5.358h1.477l-1.824,7.748H10.591L9.354,14.742q-.054-.222-.122-.578t-.084-.52H9.127q-.021.189-.084.561c-.042.249-.075.432-.1.552L7.78,19.871H6.024L4.19,12.127h1.5l1.131,5.418A4.469,4.469,0,0,1,6.9,17.988Z" style="fill:#fff"/>
  </symbol>
  
</svg>

